<?xml version="1.0" encoding="UTF-8"?>
<svg id="Layer_1" xmlns="http://www.w3.org/2000/svg" viewBox="0 0 500 250">
  <defs>
    <style>
      .cls-1 {
        stroke: #aaa;
      }

      .cls-1, .cls-2, .cls-3, .cls-4, .cls-5 {
        fill: #fff;
      }

      .cls-1, .cls-6 {
        stroke-miterlimit: 10;
      }

      .cls-3 {
        font-size: 6.98px;
      }

      .cls-3, .cls-5 {
        font-family: Poppins-Medium, Poppins;
        font-weight: 500;
      }

      .cls-7 {
        fill: #133cbd;
        font-size: 64.59px;
      }

      .cls-7, .cls-4, .cls-8 {
        font-family: Poppins-SemiBold, Poppins;
        font-weight: 600;
      }

      .cls-9 {
        fill: #0080ff;
      }

      .cls-10 {
        fill: #00749f;
      }

      .cls-4 {
        font-size: 11.3px;
      }

      .cls-5, .cls-8 {
        font-size: 8.86px;
      }

      .cls-11 {
        fill: #133082;
      }

      .cls-8, .cls-12 {
        fill: #293e75;
      }

      .cls-13 {
        fill: #0015bf;
      }

      .cls-14 {
        fill: #007434;
      }

      .cls-6 {
        fill: none;
        stroke: #293e75;
        stroke-width: 2.5px;
      }
    </style>
  </defs>
  <rect class="cls-2" x="-8.54" y="-6.54" width="516" height="262"/>
  <text class="cls-7" transform="translate(157.9 88.17)"><tspan x="0" y="0">IDEAS</tspan></text>
  <path class="cls-9" d="M404.8,45.48l-9.67,4.83c-.84.42-1.83-.19-1.83-1.13v-3.88h-18.35c-.51,0-.91.41-.91.91v11.56c0,.51-.41.91-.91.91h-26.64c-.51,0-.91-.41-.91-.91v-.04c0-.51.41-.91.91-.91h24.77c.51,0,.91-.41.91-.91v-11.56c0-.51.41-.91.91-.91h20.22v-3.92c0-.94.99-1.55,1.83-1.13l9.67,4.83c.93.47.93,1.8,0,2.27Z"/>
  <g>
    <rect class="cls-11" x="150" y="135" width="200" height="21"/>
    <text class="cls-4" transform="translate(154.93 150.14)"><tspan x="0" y="0">LOGO HERE</tspan></text>
    <text class="cls-3" transform="translate(278.69 148.58)"><tspan x="0" y="0">WEBPAGES HERE</tspan></text>
    <rect class="cls-12" x="150" y="155" width="200" height="115"/>
    <circle class="cls-13" cx="250" cy="201" r="39"/>
    <path class="cls-14" d="M222.5,177c3,5,4,9,2,13s3.94,3,5.47,0c1.53-3,5.72-11.36,6.13-5.18.4,6.18-6.49,11.18-2.04,16.18,4.45,5,15.45,11,11.45,18s2,16,8,17,9-10,11-18,8-22.77,0-21.38c-8,1.38-23.96,11.38-23.98,4.38-.02-7,10.9-7.04,8.94-19.02-1.96-11.98-1.96-17.98-6.96-13.98s-20,7.17-20,7.17v1.83Z"/>
    <path class="cls-14" d="M259.5,179c6,3-1,4,5,9s8.69,7.64,11.34,13.32,10.66,8.68,6.66-4.32-8.08-25.75-13.04-24.87c-4.96.87-9.96,6.87-9.96,6.87Z"/>
    <path class="cls-14" d="M215.96,207.5s3.54,6.99,6.54,11.24c3,4.26,13,15.26,12,10.26s-5-15-8-15-10.54-6.5-10.54-6.5Z"/>
  </g>
  <g>
    <rect class="cls-12" x="6.5" y="69" width="83.33" height="66.67" rx="10" ry="10"/>
    <g>
      <path class="cls-10" d="M13.05,69h42.45v42.04c0,3.61-2.93,6.55-6.55,6.55H6.5v-42.04c0-3.61,2.93-6.55,6.55-6.55Z"/>
      <text class="cls-5" transform="translate(16.86 89.12)"><tspan x="0" y="0">EVENT</tspan><tspan x="0" y="10.63">IMAGE</tspan></text>
    </g>
    <circle class="cls-2" cx="63" cy="93.5" r="1.5"/>
    <circle class="cls-2" cx="67" cy="93.5" r="1.5"/>
    <circle class="cls-2" cx="71" cy="93.5" r="1.5"/>
    <g>
      <circle class="cls-2" cx="63" cy="88.5" r="1.5"/>
      <circle class="cls-2" cx="67" cy="88.5" r="1.5"/>
      <circle class="cls-2" cx="75" cy="88.5" r="1.5"/>
      <circle class="cls-2" cx="71" cy="88.5" r="1.5"/>
    </g>
    <g>
      <circle class="cls-2" cx="63" cy="98.5" r="1.5"/>
      <circle class="cls-2" cx="67" cy="98.5" r="1.5"/>
      <circle class="cls-2" cx="75" cy="98.5" r="1.5"/>
      <circle class="cls-2" cx="71" cy="98.5" r="1.5"/>
    </g>
    <rect class="cls-2" x="77.25" y="75.36" width="7.5" height="2" transform="translate(-30.27 79.64) rotate(-45)"/>
    <rect class="cls-2" x="77.25" y="75.36" width="7.5" height="2" transform="translate(77.72 -34.91) rotate(45)"/>
  </g>
  <path class="cls-9" d="M97.1,95.58l13.7-6.85c1.19-.6,2.6.27,2.6,1.61v5.5h26c.72,0,1.3-.58,1.3-1.3v-16.38c0-.72.58-1.3,1.3-1.3h13.75c.72,0,1.3.58,1.3,1.3v.06c0,.72-.58,1.3-1.3,1.3h-11.1c-.72,0-1.3.58-1.3,1.3v16.38c0,.72-.58,1.3-1.3,1.3h-28.65v5.55c0,1.33-1.4,2.2-2.6,1.61l-13.7-6.85c-1.32-.66-1.32-2.55,0-3.21Z"/>
  <path class="cls-9" d="M387.71,88.61h-5.1v-10.37c0-.64-.52-1.15-1.15-1.15h-33.59c-.64,0-1.15.52-1.15,1.15v.05c0,.64.52,1.15,1.15,1.15h31.23c.64,0,1.15.52,1.15,1.15v8.01h-4.74c-1.19,0-1.96,1.25-1.43,2.31l6.1,12.19c.59,1.18,2.27,1.18,2.86,0l6.1-12.19c.53-1.06-.24-2.31-1.43-2.31Z"/>
  <path class="cls-9" d="M251.63,132l6.94-13.87c.6-1.21-.27-2.63-1.63-2.63h-5.57v-20.4h-2.68v20.4h-5.62c-1.35,0-2.23,1.42-1.63,2.63l6.94,13.87c.67,1.34,2.58,1.34,3.25,0Z"/>
  <g>
    <text class="cls-8" transform="translate(371.21 169.91)"><tspan x="0" y="0">NAME</tspan><tspan x="2.06" y="10.63">ROLE</tspan></text>
    <circle class="cls-6" cx="384" cy="134.5" r="22.5"/>
  </g>
  <g>
    <rect class="cls-12" x="413.53" y="15.69" width="80" height="85" rx="10" ry="10"/>
    <path class="cls-10" d="M423.53,15.69h60c5.52,0,10,4.48,10,10v30h-80v-30c0-5.52,4.48-10,10-10Z"/>
    <text class="cls-5" transform="translate(433.88 33.66)"><tspan x="0" y="0">PROJECT</tspan><tspan x="5.74" y="10.63">IMAGE</tspan></text>
    <g>
      <circle class="cls-2" cx="426" cy="69.5" r="1.5"/>
      <circle class="cls-2" cx="430" cy="69.5" r="1.5"/>
      <circle class="cls-2" cx="434" cy="69.5" r="1.5"/>
      <g>
        <circle class="cls-2" cx="438" cy="69.51" r="1.5"/>
        <circle class="cls-2" cx="442" cy="69.51" r="1.5"/>
        <circle class="cls-2" cx="446" cy="69.51" r="1.5"/>
      </g>
    </g>
    <g>
      <circle class="cls-2" cx="426" cy="62.5" r="1.5"/>
      <circle class="cls-2" cx="430" cy="62.5" r="1.5"/>
      <circle class="cls-2" cx="438" cy="62.5" r="1.5"/>
      <circle class="cls-2" cx="434" cy="62.5" r="1.5"/>
      <circle class="cls-2" cx="442" cy="62.5" r="1.5"/>
      <circle class="cls-2" cx="446" cy="62.5" r="1.5"/>
      <circle class="cls-2" cx="454" cy="62.5" r="1.5"/>
      <circle class="cls-2" cx="450" cy="62.5" r="1.5"/>
    </g>
    <g>
      <circle class="cls-2" cx="426" cy="75.51" r="1.5"/>
      <circle class="cls-2" cx="430" cy="75.51" r="1.5"/>
      <circle class="cls-2" cx="438" cy="75.51" r="1.5"/>
      <circle class="cls-2" cx="434" cy="75.51" r="1.5"/>
      <circle class="cls-2" cx="442" cy="75.51" r="1.5"/>
      <circle class="cls-2" cx="446" cy="75.51" r="1.5"/>
      <circle class="cls-2" cx="454" cy="75.51" r="1.5"/>
      <circle class="cls-2" cx="450" cy="75.51" r="1.5"/>
    </g>
  </g>
  <rect class="cls-10" x="24" y="172" width="30" height="30"/>
  <rect class="cls-11" x="54" y="172" width="30" height="30"/>
  <rect class="cls-1" x="84.5" y="172.5" width="29" height="29"/>
</svg>