<?xml version="1.0" encoding="UTF-8"?>
<svg id="Airplane" xmlns="http://www.w3.org/2000/svg" viewBox="0 0 500 250">
  <defs>
    <style>
      .cls-1 {
        fill: #fff;
      }

      .cls-2 {
        fill: #0080ff;
      }

      .cls-3 {
        fill: #133cbd;
        font-family: Poppins-SemiBold, Poppins;
        font-size: 31.43px;
        font-weight: 600;
      }
    </style>
  </defs>
  <rect class="cls-1" x="-6" y="-4" width="516" height="262"/>
  <text class="cls-3" transform="translate(74.44 129.05)"><tspan x="0" y="0">IMAGE COMING SOON!</tspan></text>
  <g>
    <path class="cls-2" d="M12.35-36.93h12.86c3.21,0,5.82,2.61,5.82,5.82v122.77H6.54V-31.11c0-3.21,2.61-5.82,5.82-5.82Z" transform="translate(-10.96 42.1) rotate(-81.89)"/>
    <path class="cls-2" d="M91.77-13.29l24.31,18.98c7.46,5.83,11.24,15.2,9.91,24.58l-1.38,9.7-1.8,12.66c-.1.67-.44,1.28-.97,1.7-2.95,2.35-5.04,5.78-5.62,9.8-.55,3.85.39,7.57,2.38,10.58.55.83.81,1.82.67,2.81l-1.2,8.43c-.2,1.39-1.48,2.36-2.87,2.16l-19.22-2.74c-1.39-.2-2.36-1.48-2.16-2.87l1.2-8.43c.14-.99.66-1.87,1.42-2.51,2.75-2.34,4.69-5.65,5.24-9.5.15-1.08.19-2.15.12-3.19-.29-4.32-3.61-7.82-7.89-8.43l-7.73-1.1,3.45-24.25,6.67-1.92c5.58-1.61,7.93-8.23,4.61-12.99l-13.49-19.33c-2-2.86,1.62-6.29,4.37-4.14Z"/>
  </g>
  <path class="cls-2" d="M418.17,187.32l-10.11,4.11c-1.25.51-2.66.35-3.76-.43l-15.53-10.88c-1.48-1.03-3.51,0-3.56,1.8-.26,9.78,4.24,19.51,12.86,25.54,6.93,4.85,15.18,6.38,22.88,4.93,3.24-.61,6.58.21,9.28,2.1l108.6,76.04c2.7,1.89,4.61,4.75,5.14,8,1.27,7.73,5.54,14.96,12.46,19.81,8.62,6.03,19.29,6.94,28.4,3.35,1.68-.66,1.95-2.92.48-3.96l-15.53-10.88c-1.1-.77-1.74-2.05-1.69-3.39l.4-10.9c.06-1.56,1.02-2.94,2.47-3.53l10.11-4.11c1.25-.51,2.66-.35,3.76.43l15.53,10.88c1.48,1.03,3.51,0,3.56-1.8.26-9.78-4.24-19.51-12.86-25.54-6.93-4.85-15.18-6.38-22.88-4.93-3.24.61-6.58-.21-9.28-2.1l-108.6-76.04c-2.7-1.89-4.61-4.75-5.14-8-1.27-7.73-5.54-14.96-12.46-19.81-8.62-6.03-19.29-6.94-28.4-3.35-1.68.66-1.95,2.92-.48,3.96l15.53,10.88c1.1.77,1.74,2.05,1.69,3.39l-.4,10.9c-.06,1.56-1.02,2.94-2.47,3.53Z"/>
  <path class="cls-2" d="M350.55,135.39c-4.69,0-8.59,3.31-9.53,7.71h-71.08v33.49c-4.41.94-7.71,4.84-7.71,9.53,0,5.38,4.37,9.75,9.75,9.75s9.75-4.36,9.75-9.75c0-4.69-3.31-8.59-7.71-9.53v-29.42h67.01c.94,4.4,4.84,7.71,9.53,7.71,5.38,0,9.75-4.37,9.75-9.75s-4.37-9.75-9.75-9.75ZM277.8,186.12c0,3.21-2.61,5.82-5.82,5.82s-5.82-2.61-5.82-5.82,2.61-5.82,5.82-5.82,5.82,2.6,5.82,5.82ZM350.55,150.96c-3.21,0-5.82-2.61-5.82-5.82s2.61-5.82,5.82-5.82,5.82,2.61,5.82,5.82-2.61,5.82-5.82,5.82Z"/>
  <path class="cls-2" d="M130.63,147.85c-4.69,0-8.59,3.31-9.53,7.71H49.57s0-40.77,0-40.77h-4.07s0,0,0,0h-13.57c-.94-4.41-4.84-7.71-9.53-7.71-5.38,0-9.75,4.37-9.75,9.75,0,5.38,4.36,9.75,9.75,9.75,4.72,0,8.65-3.35,9.55-7.8h13.55s0,40.86,0,40.86h4.07s71.54,0,71.54,0c.94,4.41,4.84,7.71,9.53,7.71,5.38,0,9.75-4.36,9.75-9.75s-4.36-9.75-9.75-9.75ZM22.4,122.65c-3.21,0-5.82-2.61-5.82-5.82s2.61-5.82,5.82-5.82c3.22,0,5.82,2.61,5.82,5.82s-2.6,5.82-5.82,5.82ZM130.63,163.42c-3.22,0-5.82-2.61-5.82-5.82,0-3.21,2.6-5.82,5.82-5.82,3.21,0,5.82,2.61,5.82,5.82,0,3.21-2.61,5.82-5.82,5.82Z"/>
  <path class="cls-2" d="M375.45,48.58c4.69,0,8.59,3.31,9.53,7.71h71.08v50.95c4.41.94,7.71,4.84,7.71,9.53,0,5.38-4.37,9.75-9.75,9.75s-9.75-4.36-9.75-9.75c0-4.69,3.31-8.59,7.71-9.53v-46.88h-67.01c-.94,4.4-4.84,7.71-9.53,7.71-5.38,0-9.75-4.37-9.75-9.75s4.37-9.75,9.75-9.75ZM448.21,116.77c0,3.21,2.61,5.82,5.82,5.82s5.82-2.61,5.82-5.82-2.61-5.82-5.82-5.82-5.82,2.6-5.82,5.82ZM375.45,64.15c3.21,0,5.82-2.61,5.82-5.82s-2.61-5.82-5.82-5.82-5.82,2.61-5.82,5.82,2.61,5.82,5.82,5.82Z"/>
  <path class="cls-2" d="M167.28,95.72c4.69,0,8.59-3.31,9.53-7.71h71.08v-33.49c4.41-.94,7.71-4.84,7.71-9.53,0-5.38-4.37-9.75-9.75-9.75s-9.75,4.36-9.75,9.75c0,4.69,3.31,8.59,7.71,9.53v29.42h-67.01c-.94-4.4-4.84-7.71-9.53-7.71-5.38,0-9.75,4.37-9.75,9.75s4.37,9.75,9.75,9.75ZM240.03,44.98c0-3.21,2.61-5.82,5.82-5.82s5.82,2.61,5.82,5.82-2.61,5.82-5.82,5.82-5.82-2.6-5.82-5.82ZM167.28,80.15c3.21,0,5.82,2.61,5.82,5.82s-2.61,5.82-5.82,5.82-5.82-2.61-5.82-5.82,2.61-5.82,5.82-5.82Z"/>
</svg>