<?xml version="1.0" encoding="UTF-8"?>
<svg id="Layer_1" data-name="Layer 1" xmlns="http://www.w3.org/2000/svg" viewBox="0 0 100 100">
  <defs>
    <style>
      .cls-1 {
        fill: #8d59cf;
      }

      .cls-1, .cls-2 {
        stroke-width: 0px;
      }

      .cls-2 {
        fill: #fff;
      }

      .cls-3 {
        fill: none;
        stroke: #fff;
        stroke-miterlimit: 10;
        stroke-width: 2px;
      }
    </style>
  </defs>
  <circle class="cls-1" cx="50" cy="50" r="47.5"/>
  <g>
    <path class="cls-2" d="M71.98,65.77l-9.51-17.74h-24.95l-9.51,17.74c-2.34,4.37.82,9.65,5.78,9.65h32.41c4.95,0,8.12-5.28,5.78-9.65Z"/>
    <path class="cls-3" d="M71.98,65.72l-15.13-28.25v-8.68c2.27,0,4.11-1.84,4.11-4.11s-1.84-4.11-4.11-4.11h-13.7c-2.27,0-4.11,1.84-4.11,4.11s1.84,4.11,4.11,4.11v8.68l-15.13,28.25c-2.34,4.37.82,9.65,5.78,9.65h32.4c4.95,0,8.12-5.28,5.78-9.65Z"/>
  </g>
</svg>