<?xml version="1.0" encoding="UTF-8"?>
<svg id="Layer_1" data-name="Layer 1" xmlns="http://www.w3.org/2000/svg" viewBox="0 0 100 100">
  <defs>
    <style>
      .cls-1 {
        fill: #f7931e;
      }

      .cls-1, .cls-2 {
        stroke-width: 0px;
      }

      .cls-2 {
        fill: #fff;
      }
    </style>
  </defs>
  <circle class="cls-1" cx="50" cy="50" r="47.5"/>
  <g>
    <path class="cls-2" d="M82.28,33.89c-1.47,0-2.7,1.04-2.99,2.42h-22.32v10.52c-1.38.29-2.42,1.52-2.42,2.99,0,1.69,1.37,3.06,3.06,3.06s3.06-1.37,3.06-3.06c0-1.47-1.04-2.7-2.42-2.99v-9.24h21.04c.29,1.38,1.52,2.42,2.99,2.42,1.69,0,3.06-1.37,3.06-3.06s-1.37-3.06-3.06-3.06ZM59.43,49.82c0,1.01-.82,1.83-1.83,1.83s-1.83-.82-1.83-1.83.82-1.83,1.83-1.83,1.83.82,1.83,1.83ZM82.28,38.78c-1.01,0-1.83-.82-1.83-1.83s.82-1.83,1.83-1.83,1.83.82,1.83,1.83-.82,1.83-1.83,1.83Z"/>
    <path class="cls-2" d="M62.6,22.7c0-1.69-1.37-3.06-3.06-3.06s-3.06,1.37-3.06,3.06c0,1.47,1.04,2.7,2.42,2.99v4.26h-18.82v10.52c-1.38.29-2.42,1.52-2.42,2.99,0,1.69,1.37,3.06,3.06,3.06s3.06-1.37,3.06-3.06c0-1.47-1.04-2.7-2.42-2.99v-9.24h18.82v-5.54c1.38-.29,2.42-1.52,2.42-2.99ZM42.54,43.46c0,1.01-.82,1.83-1.83,1.83s-1.83-.82-1.83-1.83.82-1.83,1.83-1.83,1.83.82,1.83,1.83ZM59.54,24.52c-1.01,0-1.83-.82-1.83-1.83s.82-1.83,1.83-1.83,1.83.82,1.83,1.83-.82,1.83-1.83,1.83Z"/>
    <path class="cls-2" d="M48.51,70.38c1.47,0,2.7-1.04,2.99-2.42h22.32v-17.83c1.38-.29,2.42-1.52,2.42-2.99,0-1.69-1.37-3.06-3.06-3.06s-3.06,1.37-3.06,3.06c0,1.47,1.04,2.7,2.42,2.99v16.55h-21.04c-.29-1.38-1.52-2.42-2.99-2.42-1.69,0-3.06,1.37-3.06,3.06s1.37,3.06,3.06,3.06ZM71.36,47.14c0-1.01.82-1.83,1.83-1.83s1.83.82,1.83,1.83-.82,1.83-1.83,1.83-1.83-.82-1.83-1.83ZM48.51,65.49c1.01,0,1.83.82,1.83,1.83s-.82,1.83-1.83,1.83-1.83-.82-1.83-1.83.82-1.83,1.83-1.83Z"/>
    <path class="cls-2" d="M49.71,48.16c-1.47,0-2.7,1.04-2.99,2.42h-22.46s0-12.8,0-12.8h-1.28s0,0,0,0h-4.26c-.29-1.38-1.52-2.42-2.99-2.42-1.69,0-3.06,1.37-3.06,3.06,0,1.69,1.37,3.06,3.06,3.06,1.48,0,2.72-1.05,3-2.45h4.25s0,12.83,0,12.83h1.28s22.46,0,22.46,0c.29,1.38,1.52,2.42,2.99,2.42,1.69,0,3.06-1.37,3.06-3.06s-1.37-3.06-3.06-3.06ZM15.72,40.25c-1.01,0-1.83-.82-1.83-1.83s.82-1.83,1.83-1.83c1.01,0,1.83.82,1.83,1.83s-.82,1.83-1.83,1.83ZM49.71,53.05c-1.01,0-1.83-.82-1.83-1.83,0-1.01.82-1.83,1.83-1.83,1.01,0,1.83.82,1.83,1.83,0,1.01-.82,1.83-1.83,1.83Z"/>
    <path class="cls-2" d="M63.36,55.89c-1.47,0-2.7,1.04-2.99,2.42h-22.32v16c-1.38.29-2.42,1.52-2.42,2.99,0,1.69,1.37,3.06,3.06,3.06s3.06-1.37,3.06-3.06c0-1.47-1.04-2.7-2.42-2.99v-14.72h21.04c.29,1.38,1.52,2.42,2.99,2.42,1.69,0,3.06-1.37,3.06-3.06s-1.37-3.06-3.06-3.06ZM40.51,77.3c0,1.01-.82,1.83-1.83,1.83s-1.83-.82-1.83-1.83.82-1.83,1.83-1.83,1.83.82,1.83,1.83ZM63.36,60.78c-1.01,0-1.83-.82-1.83-1.83s.82-1.83,1.83-1.83,1.83.82,1.83,1.83-.82,1.83-1.83,1.83Z"/>
  </g>
</svg>