<?xml version="1.0" encoding="UTF-8"?>
<svg id="Layer_1" data-name="Layer 1" xmlns="http://www.w3.org/2000/svg" viewBox="0 0 100 100">
  <defs>
    <style>
      .cls-1 {
        fill: #b10000;
      }

      .cls-1, .cls-2 {
        stroke-width: 0px;
      }

      .cls-2 {
        fill: #fff;
      }
    </style>
  </defs>
  <circle class="cls-1" cx="50" cy="50" r="47.5"/>
  <path class="cls-2" d="M84.98,52.85l.02-6.14-5.62-1.85c-.34-1.95-.86-3.83-1.56-5.63l3.88-4.29-3.06-5.33-5.77,1.21c-1.26-1.5-2.66-2.87-4.19-4.1l1.21-5.65-5.31-3.08-4.4,3.95c-1.81-.66-3.7-1.14-5.66-1.44l-1.79-5.51h-6.14l-1.82,5.62c-1.8.32-3.53.8-5.2,1.42l-4.24-3.93-5.36,3,1.14,5.76c-1.52,1.25-2.93,2.64-4.18,4.16l-5.6-1.27-3.14,5.28,3.88,4.42c-.69,1.81-1.2,3.71-1.52,5.67l-5.5,1.71-.07,6.14,5.58,1.88c.32,1.97.84,3.86,1.52,5.68l-3.89,4.23,3.02,5.35,5.73-1.16c1.26,1.52,2.67,2.92,4.2,4.17l-1.24,5.59,5.29,3.12,4.4-3.9c1.82.68,3.72,1.18,5.68,1.49l1.73,5.49,6.14.05,1.86-5.58c1.96-.33,3.85-.85,5.67-1.55l4.25,3.88,5.34-3.04-1.19-5.75c1.51-1.26,2.89-2.67,4.13-4.2l5.62,1.23,3.1-5.3-3.93-4.41c.67-1.81,1.16-3.7,1.46-5.66l5.51-1.76ZM50,71.33c-11.78,0-21.33-9.55-21.33-21.33s9.55-21.33,21.33-21.33,21.33,9.55,21.33,21.33-9.55,21.33-21.33,21.33Z"/>
</svg>