<?xml version="1.0" encoding="UTF-8"?>
<svg id="Layer_1" xmlns="http://www.w3.org/2000/svg" viewBox="0 0 500 150">
  <defs>
    <style>
      .cls-1 {
        fill: #fff;
      }

      .cls-2 {
        fill: #133cbd;
      }

      .cls-3 {
        fill: #0080ff;
      }
    </style>
  </defs>
  <rect class="cls-1" x="-2.5" y="-9.5" width="505" height="167.6"/>
  <path class="cls-3" d="M347.03,91.52c-3.74,0-6.86,2.64-7.61,6.16h-56.73v26.73c-3.52.75-6.16,3.87-6.16,7.61,0,4.3,3.48,7.78,7.78,7.78s7.78-3.48,7.78-7.78c0-3.74-2.64-6.86-6.15-7.61v-23.48h53.48c.75,3.52,3.87,6.15,7.61,6.15,4.3,0,7.78-3.48,7.78-7.78s-3.48-7.78-7.78-7.78ZM288.97,132.01c0,2.57-2.08,4.65-4.65,4.65s-4.65-2.08-4.65-4.65,2.08-4.65,4.65-4.65,4.65,2.08,4.65,4.65ZM347.03,103.95c-2.57,0-4.65-2.08-4.65-4.65s2.08-4.65,4.65-4.65,4.65,2.08,4.65,4.65-2.08,4.65-4.65,4.65Z"/>
  <path class="cls-3" d="M155.51,100.47c-3.74,0-6.86,2.64-7.61,6.15h-57.09s0-32.54,0-32.54h-3.25s0,0,0,0h-10.83c-.75-3.52-3.87-6.16-7.61-6.16-4.3,0-7.78,3.48-7.78,7.78,0,4.3,3.48,7.78,7.78,7.78,3.77,0,6.91-2.68,7.62-6.23h10.81s0,32.61,0,32.61h3.25s57.09,0,57.09,0c.75,3.52,3.87,6.16,7.6,6.16,4.3,0,7.78-3.48,7.78-7.78s-3.48-7.78-7.78-7.78ZM69.13,80.36c-2.57,0-4.65-2.08-4.65-4.65s2.08-4.65,4.65-4.65c2.57,0,4.65,2.08,4.65,4.65s-2.08,4.65-4.65,4.64ZM155.51,112.89c-2.57,0-4.65-2.08-4.64-4.65,0-2.57,2.08-4.65,4.65-4.64,2.57,0,4.65,2.08,4.65,4.65,0,2.57-2.08,4.65-4.65,4.64Z"/>
  <path class="cls-3" d="M352.91,26.24c3.74,0,6.86,2.64,7.61,6.16h56.73v40.67c3.52.75,6.16,3.87,6.16,7.61,0,4.3-3.48,7.78-7.78,7.78s-7.78-3.48-7.78-7.78c0-3.74,2.64-6.86,6.15-7.61v-37.41h-53.48c-.75,3.52-3.87,6.15-7.61,6.15-4.3,0-7.78-3.48-7.78-7.78s3.48-7.78,7.78-7.78ZM410.97,80.67c0,2.57,2.08,4.65,4.65,4.65s4.65-2.08,4.65-4.65-2.08-4.65-4.65-4.65-4.65,2.08-4.65,4.65ZM352.91,38.67c2.57,0,4.65-2.08,4.65-4.65s-2.08-4.65-4.65-4.65-4.65,2.08-4.65,4.65,2.08,4.65,4.65,4.65Z"/>
  <path class="cls-3" d="M181.76,60.86c3.74,0,6.86-2.64,7.61-6.16h56.73v-26.73c3.52-.75,6.16-3.87,6.16-7.61,0-4.3-3.48-7.78-7.78-7.78s-7.78,3.48-7.78,7.78c0,3.74,2.64,6.86,6.15,7.61v23.48h-53.48c-.75-3.52-3.87-6.15-7.61-6.15-4.3,0-7.78,3.48-7.78,7.78s3.48,7.78,7.78,7.78ZM239.82,20.37c0-2.57,2.08-4.65,4.65-4.65s4.65,2.08,4.65,4.65-2.08,4.65-4.65,4.65-4.65-2.08-4.65-4.65ZM181.76,48.43c2.57,0,4.65,2.08,4.65,4.65s-2.08,4.65-4.65,4.65-4.65-2.08-4.65-4.65,2.08-4.65,4.65-4.65Z"/>
  <path class="cls-3" d="M449.19,123.6l-8.07,3.28c-.99.4-2.12.28-3-.34l-12.4-8.68c-1.18-.83-2.8,0-2.84,1.44-.2,7.81,3.39,15.57,10.27,20.39,5.53,3.87,12.11,5.09,18.26,3.94,2.58-.49,5.25.17,7.41,1.67l86.68,60.69c2.15,1.51,3.68,3.79,4.11,6.39,1.02,6.17,4.42,11.94,9.94,15.81,6.88,4.82,15.4,5.54,22.67,2.67,1.34-.53,1.56-2.33.38-3.16l-12.4-8.68c-.88-.62-1.39-1.63-1.35-2.71l.32-8.7c.05-1.24.82-2.35,1.97-2.81l8.07-3.28c.99-.4,2.12-.28,3,.34l12.4,8.68c1.18.83,2.8,0,2.84-1.44.2-7.81-3.39-15.57-10.27-20.39-5.53-3.87-12.11-5.09-18.26-3.94-2.58.49-5.25-.17-7.41-1.67l-86.68-60.69c-2.15-1.51-3.68-3.79-4.11-6.39-1.02-6.17-4.42-11.94-9.94-15.81-6.88-4.82-15.4-5.54-22.67-2.67-1.34.53-1.56,2.33-.38,3.16l12.4,8.68c.88.62,1.39,1.63,1.35,2.71l-.32,8.7c-.05,1.24-.82,2.35-1.97,2.81Z"/>
  <g>
    <path class="cls-3" d="M-34.98-36.87h10.26c2.56,0,4.64,2.08,4.64,4.64v97.99h-19.55V-32.23c0-2.56,2.08-4.64,4.64-4.64Z" transform="translate(-40.95 -16.81) rotate(-83.72)"/>
    <path class="cls-3" d="M27.34-19.84l19.88,14.52c6.1,4.46,9.36,11.84,8.53,19.35l-.86,7.77-1.12,10.15c-.06.54-.32,1.03-.73,1.38-2.29,1.95-3.88,4.74-4.23,7.96s.5,6.03,2.16,8.38c.46.65.69,1.43.6,2.22l-.74,6.75c-.12,1.11-1.12,1.92-2.24,1.79l-15.4-1.69c-1.11-.12-1.92-1.12-1.79-2.24l.74-6.75c.09-.79.48-1.51,1.07-2.04,2.13-1.93,3.6-4.62,3.93-7.71.1-.86.1-1.72.01-2.55-.34-3.44-3.08-6.15-6.51-6.52l-6.2-.68,2.14-19.43,5.27-1.7c4.41-1.42,6.12-6.76,3.34-10.48l-11.25-15.08c-1.67-2.23,1.13-5.06,3.38-3.41Z"/>
  </g>
  <path class="cls-2" d="M200.23,82.89h-6.97l-1.15,3.34h-3.69l6.3-17.54h4.09l6.3,17.54h-3.71l-1.15-3.34ZM199.27,80.08l-2.53-7.33-2.53,7.33h5.07Z"/>
  <path class="cls-2" d="M219.82,78.73c.63.8.95,1.72.95,2.76,0,.94-.23,1.76-.69,2.47s-1.12,1.27-1.99,1.67c-.87.4-1.9.6-3.09.6h-7.55v-17.51h7.23c1.19,0,2.21.19,3.07.58s1.51.92,1.96,1.61c.44.69.67,1.46.67,2.33,0,1.02-.27,1.87-.82,2.56-.54.69-1.27,1.17-2.17,1.46.99.18,1.8.68,2.43,1.48ZM210.96,75.94h3.21c.84,0,1.48-.19,1.93-.56.45-.38.68-.92.68-1.62s-.23-1.25-.68-1.63c-.45-.38-1.1-.58-1.93-.58h-3.21v4.39ZM216.5,82.77c.48-.4.71-.97.71-1.71s-.25-1.34-.75-1.77c-.5-.43-1.18-.64-2.03-.64h-3.46v4.72h3.54c.85,0,1.52-.2,2-.6Z"/>
  <path class="cls-2" d="M227.19,85.25c-1.37-.77-2.46-1.83-3.26-3.2-.8-1.36-1.21-2.91-1.21-4.63s.4-3.24,1.21-4.6c.8-1.36,1.89-2.43,3.26-3.2s2.88-1.15,4.52-1.15,3.17.38,4.53,1.15c1.36.77,2.44,1.84,3.24,3.2.79,1.36,1.19,2.9,1.19,4.6s-.4,3.27-1.19,4.63c-.79,1.36-1.88,2.43-3.25,3.2-1.37.77-2.88,1.15-4.52,1.15s-3.15-.38-4.52-1.15ZM234.5,82.55c.8-.48,1.43-1.16,1.88-2.04s.68-1.92.68-3.09-.23-2.2-.68-3.07c-.45-.88-1.08-1.55-1.88-2.02-.8-.47-1.73-.7-2.78-.7s-1.99.23-2.8.7c-.81.47-1.44,1.14-1.89,2.02-.45.88-.68,1.9-.68,3.07s.23,2.2.68,3.09c.45.89,1.08,1.57,1.89,2.04s1.74.72,2.8.72,1.98-.24,2.78-.72Z"/>
  <path class="cls-2" d="M246.74,68.72v10.84c0,1.19.31,2.1.93,2.72s1.49.94,2.61.94,2.02-.31,2.63-.94c.62-.63.93-1.53.93-2.72v-10.84h3.54v10.81c0,1.49-.32,2.75-.97,3.78s-1.5,1.8-2.58,2.32c-1.08.52-2.28.78-3.6.78s-2.49-.26-3.55-.78c-1.06-.52-1.9-1.29-2.52-2.32-.62-1.03-.93-2.29-.93-3.78v-10.81h3.51Z"/>
  <path class="cls-2" d="M272.68,68.72v2.83h-4.67v14.68h-3.51v-14.68h-4.67v-2.83h12.84Z"/>
  <path class="cls-2" d="M284.67,68.72v10.84c0,1.19.31,2.1.93,2.72.62.63,1.49.94,2.61.94s2.02-.31,2.63-.94c.62-.63.93-1.53.93-2.72v-10.84h3.54v10.81c0,1.49-.32,2.75-.97,3.78-.64,1.03-1.51,1.8-2.58,2.32-1.08.52-2.28.78-3.6.78s-2.49-.26-3.55-.78c-1.06-.52-1.9-1.29-2.52-2.32-.62-1.03-.93-2.29-.93-3.78v-10.81h3.51Z"/>
  <path class="cls-2" d="M301.44,85.78c-.98-.42-1.75-1.02-2.32-1.81s-.86-1.71-.88-2.79h3.76c.05.72.3,1.29.76,1.71s1.09.63,1.89.63,1.46-.2,1.93-.59c.47-.39.7-.91.7-1.54,0-.52-.16-.95-.48-1.28-.32-.33-.71-.6-1.19-.79-.48-.19-1.13-.41-1.97-.64-1.14-.33-2.06-.67-2.77-.99-.71-.33-1.32-.82-1.83-1.48-.51-.66-.76-1.54-.76-2.65,0-1.04.26-1.94.78-2.71s1.25-1.36,2.18-1.77,2.01-.62,3.21-.62c1.81,0,3.27.44,4.4,1.32s1.75,2.1,1.87,3.68h-3.86c-.03-.6-.29-1.1-.77-1.49-.48-.39-1.11-.59-1.89-.59-.69,0-1.23.18-1.64.53-.41.35-.62.86-.62,1.53,0,.47.16.86.46,1.17.31.31.69.56,1.15.75.46.19,1.11.41,1.94.67,1.14.33,2.07.67,2.79,1,.72.33,1.34.84,1.86,1.5s.78,1.55.78,2.63c0,.94-.24,1.81-.73,2.61-.48.8-1.2,1.44-2.13,1.92-.94.48-2.05.71-3.34.71-1.22,0-2.32-.21-3.3-.63Z"/>
</svg>