<?xml version="1.0" encoding="UTF-8"?>
<svg id="Layer_1" data-name="Layer 1" xmlns="http://www.w3.org/2000/svg" viewBox="0 0 100 100">
  <defs>
    <style>
      .cls-1 {
        fill: #82828c;
      }

      .cls-1, .cls-2, .cls-3, .cls-4, .cls-5 {
        stroke-width: 0px;
      }

      .cls-2 {
        fill: #787882;
      }

      .cls-3 {
        fill: #464d4d;
      }

      .cls-4 {
        fill: #9999a3;
      }

      .cls-5 {
        fill: #fff;
      }
    </style>
  </defs>
  <circle class="cls-3" cx="50" cy="50" r="47.5"/>
  <g>
    <polygon class="cls-5" points="82.51 29.21 78.6 26.79 74.28 27.63 64.06 21.31 64.89 18.32 60.98 15.9 38.57 32.52 38.58 32.53 17.32 48.3 21.23 50.72 25.55 49.89 35.77 56.2 34.94 59.19 38.85 61.61 61.26 44.99 61.25 44.99 82.51 29.21"/>
    <polygon class="cls-4" points="40.96 34.75 56.62 44.43 40.63 56.3 24.97 46.62 40.96 34.75"/>
    <polygon class="cls-2" points="82.51 29.21 82.68 51.58 38.85 84.1 38.85 61.61 82.51 29.21"/>
    <polygon class="cls-4" points="59.02 42.65 43.36 32.97 59.35 21.1 75 30.79 59.02 42.65"/>
    <polygon class="cls-4" points="25.55 72.39 35.77 78.7 34.94 81.68 38.85 84.1 38.85 61.61 34.94 59.19 35.77 56.2 25.55 49.89 21.23 50.72 17.32 48.3 17.32 70.8 21.23 73.22 25.55 72.39"/>
    <polygon class="cls-4" points="17.32 48.3 21.23 50.72 21.23 73.22 17.32 70.8 17.32 48.3"/>
    <polygon class="cls-2" points="25.55 49.89 35.77 56.2 34.94 59.19 34.94 78.19 25.55 72.39 25.55 49.89"/>
    <polygon class="cls-1" points="21.23 73.22 21.23 50.72 25.55 49.89 25.55 72.39 21.23 73.22"/>
    <polygon class="cls-4" points="34.94 81.68 34.94 59.19 38.85 61.61 38.85 84.1 34.94 81.68"/>
    <polygon class="cls-2" points="40.96 34.75 40.63 56.3 56.62 44.43 40.96 34.75"/>
    <polygon class="cls-2" points="59.35 21.1 75 30.79 59.02 42.65 59.35 21.1"/>
  </g>
</svg>