<?xml version="1.0" encoding="UTF-8"?>
<svg id="Layer_1" data-name="Layer 1" xmlns="http://www.w3.org/2000/svg" viewBox="0 0 300 300">
  <defs>
    <style>
      .cls-1 {
        stroke-width: 0px;
      }
    </style>
  </defs>
  <path class="cls-1" d="M150.01,25.01c-70.8,0-128.16,57.41-128.16,128.16,0,56.65,36.72,104.67,87.6,121.61,6.43,1.21,8.75-2.76,8.75-6.18,0-3.04-.07-11.09-.12-21.78-35.67,7.72-43.18-17.23-43.18-17.23-5.84-14.77-14.27-18.73-14.27-18.73-11.6-7.92.92-7.75.92-7.75,12.85.87,19.61,13.18,19.61,13.18,11.43,19.61,29.99,13.94,37.33,10.64,1.12-8.26,4.46-13.94,8.1-17.1-28.45-3.21-58.37-14.23-58.37-63.33,0-14.03,4.97-25.45,13.18-34.42-1.42-3.21-5.76-16.27,1.13-33.92,0,0,10.73-3.42,35.24,13.14,10.26-2.84,21.15-4.26,32.04-4.33,10.89.07,21.78,1.5,32.04,4.33,24.37-16.56,35.09-13.14,35.09-13.14,6.88,17.65,2.54,30.7,1.29,33.92,8.13,8.97,13.1,20.4,13.1,34.42,0,49.22-29.96,60.07-58.44,63.21,4.45,3.84,8.63,11.73,8.63,23.7,0,17.14-.16,30.95-.16,35.12,0,3.33,2.24,7.34,8.84,6.05,51.26-16.76,87.94-64.82,87.94-121.4,0-70.75-57.36-128.16-128.16-128.16h.02Z"/>
</svg>