<?xml version="1.0" encoding="UTF-8"?>
<svg id="Layer_1" data-name="Layer 1" xmlns="http://www.w3.org/2000/svg" viewBox="0 0 343 239">
  <defs>
    <style>
      .cls-1 {
        fill: #45abdd;
        stroke-width: 0px;
      }
    </style>
  </defs>
  <rect class="cls-1" x="128.91" y="188.81" width="37" height="22" rx="8.5" ry="8.5" transform="translate(-100.89 202.02) rotate(-54.09)"/>
  <rect class="cls-1" x="101.21" y="170.4" width="46" height="22" rx="9.48" ry="9.48" transform="translate(-95.56 175.62) rotate(-54.09)"/>
  <rect class="cls-1" x="75.12" y="152.17" width="54" height="22" rx="10.27" ry="10.27" transform="translate(-89.93 150.18) rotate(-54.09)"/>
  <rect class="cls-1" x="62.51" y="138.8" width="28" height="22" rx="7.39" ry="7.39" transform="translate(-89.69 123.91) rotate(-54.09)"/>
  <path class="cls-1" d="M170.72,71.44c34.32,20.86,49.32,29.86,68.32,41.86l29.92,22.08,2.6,1.69,18.22-15.61s-39.86-71.4-39.86-71.4c0,0-17.38,4.58-35.13-2.27-20.58-7.94-56.6-2.7-70.32,1.15-7.7,2.16-53.28,55.11-17.74,50.75,14.76-1.81,26.46-23.09,26.46-23.09l17.53-5.17"/>
  <path class="cls-1" d="M267.29,139.94l-29.88-21.39-65.95-39.85-11.66,2.71c-.95.22-1.81.71-2.48,1.41l-3.97,4.16-.14-.08c-1.11,1.42-2.03,2.51-3.29,3.89-13.81,15.07-31.11,18.97-39.41,11.37-8.3-7.6-.93-21.07,9.13-37.22,1.48-2.38.48-.88,5.22-7.38v-.02c-9.19.34-20.41-3.34-30.61-10.74l-41.86,75.81.95.53c2.52,4.06,5.28,8.03,8.23,11.91-.03-.04-.07-.08-.09-.13.2.26.39.52.59.78-.08-.11-.17-.21-.25-.32.71.93,1.44,1.84,2.17,2.76l3.59-4.96c4.21-5.82,12.34-7.12,18.15-2.9l5.89,4.27c2.42,1.75,4.04,4.18,4.83,6.83l1.33-1.83c5.51-7.6,16.14-9.31,23.74-3.8l.23.17c5.68,4.11,8.06,11.08,6.61,17.52,3.3-.51,6.79.23,9.7,2.34l6.09,4.41c4.68,3.39,6.45,9.29,4.84,14.52,2.45,0,4.93.75,7.07,2.3l8.91,6.45c5.44,3.94,6.65,11.53,2.71,16.97l-3.94,5.45c21.72,6.46,41.05,7.74,39.43-4.54-6.07-3.35-17.92-9.89-26.31-14.53h0c-1.93-1.07-2.64-3.5-1.57-5.44,1.07-1.93,3.5-2.64,5.44-1.57l5.25,2.9,14.01,7.73,10.5,5.8c6.96,3.84,15.14,2.44,19.37-4.15,0,0,.12-.19.28-.46,1.51-3.3.25-7.25-2.98-9.03l-17.51-9.67-19.26-10.64c-1.93-1.07-2.64-3.5-1.57-5.44s3.5-2.64,5.44-1.57h0s12.25,7.33,12.25,7.33l13.73,8.22,10.3,6.16c6.78,4.06,15.46,2.12,19.94-4.24l.33-.5c1.57-3.31-.71-8.03-5.32-10.79l-14.47-8.66-10.11-6.05-16.41-9.82s-.05-.02-.08-.03l-.17.28.16-.28c-1.93-1.07-2.64-3.5-1.57-5.44s3.5-2.64,5.44-1.57l.09-.16,10.99,6.84,17.46,10.87,13.09,8.15c8.59,5.35,18.35,5.33,22.49.17.13-.17.26-.34.39-.51,3.62-6.02.28-11.7-5.53-15.32Z"/>
  <rect class="cls-1" x="39.01" y="20.1" width="30" height="104" rx="5" ry="5" transform="translate(41.58 -17.12) rotate(28.91)"/>
  <rect class="cls-1" x="273.25" y="19.95" width="30" height="104" rx="5" ry="5" transform="translate(2.78 154.22) rotate(-30.09)"/>
</svg>