<?xml version="1.0" encoding="UTF-8"?>
<svg id="Layer_1" data-name="Layer 1" xmlns="http://www.w3.org/2000/svg" viewBox="0 0 300 300">
  <defs>
    <style>
      .cls-1 {
        stroke-width: 0px;
      }
    </style>
  </defs>
  <path class="cls-1" d="M150,25c-33.98,0-38.22.16-51.51.73-13.35.66-22.39,2.73-30.36,5.82-8.22,3.22-15.22,7.49-22.14,14.45-6.96,6.91-11.27,13.92-14.45,22.14-3.09,7.97-5.16,17-5.82,30.36-.6,13.31-.73,17.53-.73,51.51s.16,38.22.73,51.51c.66,13.31,2.73,22.39,5.82,30.36,3.22,8.22,7.49,15.22,14.45,22.14,6.91,6.96,13.92,11.27,22.14,14.45,7.97,3.06,17.04,5.16,30.36,5.82,13.31.6,17.53.73,51.51.73s38.22-.16,51.51-.73c13.31-.66,22.39-2.77,30.36-5.82,8.22-3.22,15.22-7.49,22.14-14.45,6.96-6.91,11.27-13.88,14.45-22.14,3.06-7.97,5.16-17.04,5.82-30.36.6-13.31.73-17.53.73-51.51s-.16-38.22-.73-51.51c-.66-13.31-2.77-22.43-5.82-30.36-3.22-8.22-7.49-15.22-14.45-22.14-6.91-6.96-13.88-11.27-22.14-14.45-7.97-3.09-17.04-5.16-30.36-5.82-13.31-.6-17.53-.73-51.51-.73ZM150,47.5c33.37,0,37.36.16,50.55.73,12.17.57,18.79,2.6,23.19,4.32,5.87,2.27,9.97,4.96,14.41,9.35,4.35,4.35,7.04,8.5,9.31,14.37,1.72,4.4,3.75,11.02,4.32,23.19.56,13.19.73,17.18.73,50.55s-.16,37.36-.77,50.55c-.66,12.17-2.69,18.79-4.4,23.19-2.37,5.87-5.01,9.97-9.37,14.41-4.4,4.35-8.59,7.04-14.41,9.31-4.34,1.72-11.06,3.75-23.28,4.32-13.26.56-17.17.73-50.62.73s-37.36-.16-50.63-.77c-12.17-.66-18.88-2.69-23.28-4.4-5.94-2.37-10.01-5.01-14.37-9.37-4.4-4.4-7.2-8.59-9.35-14.41-1.75-4.34-3.75-11.06-4.4-23.28-.45-13.1-.66-17.17-.66-50.47s.21-37.36.66-50.62c.65-12.21,2.65-18.92,4.4-23.28,2.16-5.95,4.96-10.01,9.35-14.41,4.35-4.35,8.43-7.16,14.37-9.37,4.4-1.71,10.95-3.74,23.16-4.35,13.26-.48,17.17-.65,50.58-.65l.52.36ZM150,85.84c-35.48,0-64.17,28.73-64.17,64.17s28.73,64.17,64.17,64.17,64.17-28.73,64.17-64.17-28.73-64.17-64.17-64.17ZM150,191.68c-23.03,0-41.67-18.64-41.67-41.67s18.64-41.67,41.67-41.67,41.67,18.64,41.67,41.67-18.64,41.67-41.67,41.67ZM231.76,83.28c0,8.31-6.76,15.01-15.03,15.01s-15.01-6.71-15.01-15.01,6.75-14.98,15.01-14.98,15.03,6.72,15.03,14.98Z"/>
</svg>