<?xml version="1.0" encoding="UTF-8"?>
<svg id="Layer_1" data-name="Layer 1" xmlns="http://www.w3.org/2000/svg" viewBox="0 0 320 337">
  <defs>
    <style>
      .cls-1 {
        fill: #45abdd;
        stroke-width: 0px;
      }
    </style>
  </defs>
  <rect class="cls-1" x="261.36" y="111.36" width="33" height="11" rx="4.8" ry="4.8" transform="translate(-22.51 91.58) rotate(-18)"/>
  <rect class="cls-1" x="261.23" y="188.37" width="33" height="11" rx="4.8" ry="4.8" transform="translate(73.5 -76.34) rotate(18)"/>
  <rect class="cls-1" x="214.82" y="250.05" width="33" height="11" rx="4.8" ry="4.8" transform="translate(302.1 -81.8) rotate(54)"/>
  <rect class="cls-1" x="216.18" y="49.23" width="33" height="11" rx="4.8" ry="4.8" transform="translate(48.94 207.62) rotate(-53)"/>
  <rect class="cls-1" x="143.54" y="25.37" width="33" height="11" rx="4.8" ry="4.8" transform="translate(129.17 190.91) rotate(-90)"/>
  <rect class="cls-1" x="25.64" y="111.37" width="33" height="11" rx="4.8" ry="4.8" transform="translate(46.09 241.05) rotate(-162)"/>
  <rect class="cls-1" x="25.77" y="188.38" width="33" height="11" rx="4.8" ry="4.8" transform="translate(142.38 365.21) rotate(162)"/>
  <rect class="cls-1" x="72.18" y="250.07" width="33" height="11" rx="4.8" ry="4.8" transform="translate(347.57 334.04) rotate(126)"/>
  <rect class="cls-1" x="70.82" y="49.24" width="33" height="11" rx="4.8" ry="4.8" transform="translate(96.15 157.42) rotate(-127)"/>
  <path class="cls-1" d="M244.14,153.92c0-46.55-37.64-84.29-84.14-84.49h0c-46.5.2-84.14,37.94-84.14,84.49,0,24.77,10.67,47.03,27.64,62.48h0s.03.03.05.05c1.02.93,2.06,1.84,3.13,2.72,2.27,2.19,5.22,5.54,6.89,9.45,5.74,13.39,6.58,21.34,6.68,24.08v1.09s.2,36.97.2,36.97c0,6.44,5.22,11.67,11.67,11.67h4.18c1.82,11.45,11.72,20.21,23.69,20.21s21.88-8.76,23.7-20.21h4.19c6.44,0,11.67-5.22,11.67-11.67l.2-36.97v-1.09c.11-2.73.95-10.69,6.68-24.08,1.67-3.91,4.62-7.25,6.89-9.45,1.07-.88,2.11-1.79,3.13-2.72.02-.02.05-.04.05-.04h0c16.98-15.46,27.64-37.72,27.64-62.49ZM129.9,266.07h0s-.01-3.7-.01-3.7c-.01-1.39-.03-3.11-.07-5h60.36c-.04,1.89-.06,3.61-.07,5v3.69s-.01,0-.01,0h0v2.3h-60.18v-2.3ZM144,171.37h-6.66c-3.68,0-6.66-2.98-6.66-6.66s2.98-6.66,6.66-6.66,6.66,2.98,6.66,6.66v6.66ZM165,246.37h-10v-65h10v65ZM159.99,309.11c-4.45,0-8.23-2.78-9.75-6.69h19.5c-1.52,3.91-5.31,6.69-9.76,6.69ZM180.37,291.65h-20.37s-20.37,0-20.37,0c-5.34,0-9.67-5.33-9.67-10.67v-1.61s60.08,0,60.08,0v1.61c0,5.34-4.34,10.67-9.67,10.67ZM209.31,205.22s-.02.03-.03.04c-1.72,1.9-8.28,8.1-14.28,22.1-2.13,4.97-3.37,12-4.08,19h-14.92v-65h6c9.39,0,17-7.61,17-17s-7.61-17-17-17-17,7.61-17,17v7h-10v-7c0-9.39-7.61-17-17-17s-17,7.61-17,17,7.61,17,17,17h6v65h-14.92c-.71-7-1.95-14.03-4.08-19-6-14-12.56-20.2-14.28-22.1-.01-.01-.02-.03-.03-.04-12.77-12.68-20.69-30.24-20.69-49.66,0-38.67,31.34-70.02,70-70.04,38.66.02,70,31.37,70,70.04,0,19.42-7.92,36.97-20.69,49.66ZM176,171.37v-6.66c0-3.68,2.98-6.66,6.66-6.66s6.66,2.98,6.66,6.66-2.98,6.66-6.66,6.66h-6.66Z"/>
</svg>