<?xml version="1.0" encoding="UTF-8"?>
<svg id="Layer_1" data-name="Layer 1" xmlns="http://www.w3.org/2000/svg" viewBox="0 0 300 300">
  <defs>
    <style>
      .cls-1 {
        stroke-width: 0px;
      }
    </style>
  </defs>
  <path class="cls-1" d="M256.48,25H43.45c-10.19,0-18.45,8.07-18.45,18.01v213.95c0,9.95,8.27,18.04,18.45,18.04h213.03c10.19,0,18.52-8.08,18.52-18.04V43.01c0-9.94-8.32-18.01-18.52-18.01ZM99.15,238.03h-37.1v-119.3h37.1v119.3ZM80.6,102.42c-11.89,0-21.49-9.63-21.49-21.51s9.61-21.49,21.49-21.49,21.49,9.63,21.49,21.49-9.63,21.51-21.49,21.51ZM238.02,238.03h-37.04v-58.01c0-13.84-.27-31.64-19.27-31.64s-22.24,15.07-22.24,30.63v59.02h-37.07v-119.31h35.57v16.29h.51c4.95-9.38,17.05-19.27,35.09-19.27,37.52,0,44.45,24.7,44.45,56.84v65.44h0Z"/>
</svg>