<?xml version="1.0" encoding="UTF-8"?>
<svg id="Layer_1" data-name="Layer 1" xmlns="http://www.w3.org/2000/svg" viewBox="0 0 100 59">
  <defs>
    <style>
      .cls-1 {
        fill: #fff;
      }

      .cls-1, .cls-2 {
        stroke-width: 0px;
      }

      .cls-2 {
        fill: #044982;
      }
    </style>
  </defs>
  <rect class="cls-2" x="65.42" y="17.66" width="12.88" height="12.5"/>
  <rect class="cls-2" x="49.83" y="30.07" width="13.64" height="14.02"/>
  <rect class="cls-2" x="75.55" y="33.86" width="9.47" height="10.23"/>
  <path class="cls-1" d="M46.55,11.81v9.27H11.48v14.02h35.07v11.57h41.67V11.81h-41.67ZM84.95,43.32h-35.11V15.14h35.11v28.18Z"/>
  <g>
    <path class="cls-1" d="M65.07,29.27c-.42,1.22-1.11,2.36-1.83,3.47l-3.43,5.38c-.33.56-.72.78-1.33.78h-3.51c-.5,0-.64-.5-.36-.86l3.71-5.22c-.33.06-.66.11-1,.11-3.18,0-6.01-2.55-6.01-5.88,0-3.75,3.16-6.8,7.06-6.8,3.43,0,7.14,2.41,7.14,6.41,0,.83-.11,1.58-.44,2.61ZM58.46,24.06c-1.58,0-2.88,1.25-2.88,2.8s1.3,2.77,2.88,2.77,2.85-1.22,2.85-2.77-1.27-2.8-2.85-2.8Z"/>
    <path class="cls-1" d="M81.79,26.52v6.49c0,4.38-3.85,6.3-6.92,6.3s-6.89-1.91-6.89-6.3v-6.49c0-4.38,3.85-6.3,6.89-6.3s6.92,1.91,6.92,6.3ZM74.87,24.11c-1.69,0-2.85,1.25-2.85,3.02v5.27c0,1.78,1.16,3.02,2.85,3.02s2.88-1.25,2.88-3.02v-5.27c0-1.78-1.19-3.02-2.88-3.02Z"/>
  </g>
  <g>
    <path class="cls-2" d="M15.18,29.03v1.48c0,.13,0,.26-.01.38,0,.12-.03.24-.08.33-.04.1-.11.18-.21.23-.09.06-.23.09-.41.09s-.3-.03-.39-.09c-.09-.06-.16-.14-.2-.23-.04-.1-.07-.21-.08-.33,0-.12-.01-.25-.01-.38v-4.31c0-.13,0-.26.01-.38,0-.12.03-.24.08-.33.04-.1.11-.18.2-.23.09-.06.22-.09.39-.09h1.51c.38.02.71.1,1.01.24.13.06.25.14.37.23s.23.2.32.34.17.29.23.47c.06.18.09.39.09.63,0,.33-.05.61-.15.85-.1.25-.25.45-.44.62-.19.17-.43.29-.71.37s-.59.13-.94.13h-.58ZM15.8,27.95c.15,0,.29-.05.41-.11.05-.03.1-.06.15-.1s.09-.09.13-.16c.04-.06.07-.14.09-.22.02-.09.03-.18.03-.29,0-.1-.01-.19-.03-.27-.02-.08-.05-.14-.09-.2-.04-.06-.08-.1-.12-.14-.04-.04-.09-.07-.14-.1-.12-.06-.25-.09-.39-.1h-.67v1.71h.62Z"/>
    <path class="cls-2" d="M18.73,26.2c0-.13,0-.26.01-.38,0-.12.03-.24.08-.33.04-.1.11-.18.2-.23.09-.06.22-.09.39-.09h1.51c.37.02.71.1,1,.24.12.06.25.14.37.23.12.09.23.2.32.33.09.13.17.29.23.47.06.18.09.39.09.62,0,.05,0,.11-.01.19s-.03.17-.06.26-.07.2-.12.3-.12.2-.21.3-.19.18-.31.26-.27.14-.44.19c.11.04.21.1.32.17.11.07.21.16.3.26s.16.23.22.38.08.32.08.52v.65s0,.07.03.09c.02.02.04.05.06.06.07.07.12.14.13.19.01.05.02.1.02.13,0,.11-.02.2-.06.27-.04.07-.1.13-.17.18-.07.05-.15.08-.23.1s-.18.03-.27.03c-.1,0-.2-.02-.31-.05-.1-.03-.2-.08-.28-.14-.08-.06-.15-.14-.21-.23-.05-.09-.08-.2-.08-.31v-.97c0-.13,0-.26-.03-.37-.02-.11-.05-.21-.11-.29-.05-.08-.12-.15-.21-.19-.09-.05-.21-.07-.36-.07h-.51v1.52c0,.13,0,.26-.01.39,0,.13-.03.24-.08.34-.04.1-.11.18-.21.24-.09.06-.23.09-.4.09s-.3-.03-.39-.09c-.09-.06-.16-.14-.2-.24s-.07-.21-.08-.34-.01-.26-.01-.39v-4.29ZM20.72,27.95c.15,0,.29-.04.41-.11.05-.03.1-.06.15-.1s.09-.1.13-.16c.04-.06.07-.14.09-.22.02-.08.03-.18.03-.3,0-.1-.01-.19-.03-.27-.02-.08-.05-.15-.09-.2-.04-.06-.08-.11-.12-.15-.05-.04-.1-.07-.14-.1-.12-.06-.25-.09-.39-.1h-.66v1.71h.62Z"/>
    <path class="cls-2" d="M23.76,26.97c0-.29.04-.54.13-.75.08-.21.19-.38.33-.51.13-.14.28-.24.44-.32.16-.08.31-.14.47-.18.15-.04.29-.06.41-.07.12,0,.21-.01.27-.01h.16c.06,0,.15,0,.27.01.12,0,.26.03.41.07.15.04.3.1.46.18.16.08.3.18.43.32.13.14.24.31.32.51.08.21.13.45.13.75v2.73c0,.3-.04.56-.13.77-.08.21-.19.38-.32.52-.13.14-.27.25-.43.33-.16.08-.31.14-.46.18-.15.04-.28.06-.41.07-.12,0-.21.01-.27.01h-.16c-.06,0-.15,0-.27-.01-.12,0-.26-.03-.41-.07-.15-.04-.31-.1-.47-.18-.16-.08-.31-.19-.44-.33-.13-.14-.24-.31-.33-.52-.09-.21-.13-.47-.13-.77v-2.73ZM25.28,29.87c0,.11.03.21.08.3.04.08.1.14.18.21.08.06.2.09.34.09s.26-.03.34-.09c.08-.06.14-.13.18-.21.04-.08.07-.18.08-.3v-2.97c0-.11-.04-.21-.08-.3-.04-.07-.1-.14-.18-.2-.08-.06-.19-.09-.34-.09s-.26.03-.34.09c-.08.06-.14.13-.18.2-.05.09-.07.19-.08.3v2.97Z"/>
    <path class="cls-2" d="M30.88,31.59c-.33,0-.62-.04-.86-.11-.24-.08-.45-.17-.61-.3-.17-.12-.3-.26-.4-.41-.1-.15-.18-.31-.23-.47-.05-.16-.09-.31-.1-.46-.02-.15-.03-.27-.03-.38,0-.05,0-.1.01-.17,0-.07.03-.13.08-.19.05-.06.12-.11.22-.15.1-.04.24-.06.42-.06.06,0,.14,0,.23.01.09,0,.18.03.26.06.08.03.16.08.22.14.06.06.09.14.09.25,0,.16.01.31.03.44.02.13.06.24.11.33.05.09.12.16.21.21.09.05.21.07.35.07s.26-.03.34-.09c.08-.06.14-.13.17-.21.04-.08.07-.18.07-.3v-3.35h-1.2c-.12,0-.24,0-.36-.02-.12-.01-.23-.04-.33-.08s-.18-.11-.24-.19c-.06-.09-.09-.2-.09-.35s.03-.27.09-.36c.06-.09.14-.15.24-.2.1-.04.21-.07.33-.08.12-.01.24-.02.36-.02h1.86c.17,0,.31.03.41.09s.18.14.23.24c.05.1.08.21.1.34.01.12.02.25.02.38v3.47c0,.32-.05.58-.14.8-.09.22-.21.4-.34.54s-.29.25-.46.33-.32.13-.47.17c-.15.03-.28.06-.39.06s-.19,0-.22,0Z"/>
    <path class="cls-2" d="M36.68,25.16c.12,0,.25,0,.37.01.12,0,.24.04.34.08s.18.11.25.19c.06.09.1.21.1.36s-.03.28-.1.36c-.06.09-.15.15-.25.19-.1.04-.21.07-.34.08-.12,0-.25.01-.37.01h-1.09v1.24h.58c.12,0,.24,0,.37.01.12,0,.23.03.33.07.1.04.17.1.24.19.06.08.09.2.09.35s-.03.27-.09.35c-.06.08-.14.14-.24.18s-.21.07-.33.07c-.12,0-.25.01-.37.01h-.58v1.31h1.09c.12,0,.25,0,.37.01.12,0,.24.03.34.08s.18.1.25.19c.06.09.1.21.1.36s-.03.28-.1.37c-.07.09-.15.15-.25.2-.1.04-.21.07-.34.08-.12,0-.25.01-.37.01h-1.79c-.17,0-.3-.03-.39-.09-.09-.06-.16-.14-.2-.24-.04-.1-.07-.21-.08-.34,0-.12-.01-.25-.01-.38v-4.29c0-.13,0-.26.01-.38,0-.12.03-.24.08-.34.04-.1.11-.18.2-.24s.22-.09.39-.09h1.79Z"/>
    <path class="cls-2" d="M40.6,25.13c.33,0,.62.04.87.11.24.08.45.17.61.3.17.12.3.26.4.41.1.15.18.31.23.47.05.16.09.31.11.46.02.15.02.27.02.38,0,.05,0,.1-.01.17,0,.07-.03.13-.08.19s-.12.11-.22.16c-.1.04-.24.06-.42.06-.06,0-.14,0-.23-.01-.09,0-.18-.03-.26-.06-.08-.03-.16-.08-.22-.14-.06-.06-.09-.14-.09-.25,0-.16,0-.31-.03-.44-.02-.13-.06-.24-.11-.33-.05-.09-.12-.16-.21-.21s-.21-.07-.35-.07-.26.03-.34.09c-.08.06-.14.13-.18.2-.04.09-.07.19-.07.3v2.89c0,.13.03.25.07.35.04.09.09.17.18.24.08.07.2.11.34.11s.26-.03.35-.09.16-.14.21-.24c.05-.1.09-.22.11-.35.02-.13.03-.27.03-.41,0-.05,0-.09.02-.14s.05-.09.1-.13c.06-.04.14-.08.24-.1s.25-.04.43-.04.32.02.42.06.17.09.22.14.07.1.08.15c0,.05.01.08.01.1,0,.33-.06.63-.17.9-.11.26-.27.49-.48.67s-.45.32-.73.42-.6.14-.94.14c-.05,0-.14,0-.27-.01s-.26-.03-.41-.07-.31-.1-.47-.18-.31-.19-.44-.33c-.13-.14-.24-.32-.33-.53s-.13-.47-.13-.77v-2.55c0-.25.03-.47.09-.66.06-.19.14-.36.24-.5.1-.14.21-.26.34-.36s.26-.18.39-.24c.31-.15.66-.23,1.06-.25Z"/>
    <path class="cls-2" d="M46.54,25.16c.12,0,.24,0,.37.01s.23.04.33.08.18.11.24.19c.06.09.09.21.09.36s-.03.27-.09.36c-.06.09-.14.15-.24.19-.1.04-.21.07-.33.08s-.25.02-.37.02h-.47v4.05c0,.13,0,.26-.01.38,0,.12-.03.24-.08.33-.04.1-.11.18-.21.23-.09.06-.23.09-.4.09s-.31-.03-.4-.09c-.09-.06-.16-.14-.21-.23-.04-.1-.07-.21-.08-.33,0-.12-.01-.25-.01-.38v-4.05h-.46c-.12,0-.24,0-.37-.02s-.24-.04-.34-.08c-.1-.04-.18-.11-.24-.19-.06-.09-.09-.21-.09-.36s.03-.28.09-.36c.06-.09.14-.15.24-.19.1-.04.21-.07.34-.08s.25-.01.37-.01h2.32Z"/>
  </g>
</svg>