<?xml version="1.0" encoding="UTF-8"?>
<svg id="Layer_1" data-name="Layer 1" xmlns="http://www.w3.org/2000/svg" viewBox="0 0 477 430">
  <defs>
    <style>
      .cls-1 {
        fill: #fff9b8;
        opacity: .95;
      }

      .cls-1, .cls-2 {
        stroke-width: 0px;
      }

      .cls-2 {
        fill: #45abdd;
      }
    </style>
  </defs>
  <path class="cls-1" d="M426.15,239.31l39.31-38.32-54.32-7.89c-4.43-.64-8.26-3.43-10.25-7.44l-24.29-49.22-12.33,24.97s0,0,0,0l-11.97,24.24c-1.98,4.02-5.81,6.8-10.25,7.45l-2.36.34-32.33,4.7-3.87-22.55c-1.08-6.29,1.01-12.7,5.57-17.15l55.99-54.58-77.37-11.24c-6.31-.92-11.77-4.88-14.6-10.6L238.5,11.91l-17.56,35.57s0,0,0,0l-17.04,34.53c-2.82,5.72-8.28,9.69-14.6,10.6l-3.36.49-74.01,10.75,28.5,27.78s0,0,0,0l10.22,9.96,17.26,16.83c4.57,4.45,6.65,10.87,5.57,17.16l-3.89,22.67-32.3-4.69-2.36-.34c-4.43-.64-8.27-3.43-10.25-7.45l-11.97-24.24s0,0,0,0l-12.33-24.97-24.29,49.22c-1.98,4.02-5.81,6.8-10.25,7.44l-54.32,7.89,39.31,38.32c3.21,3.13,4.67,7.63,3.91,12.04l-9.28,54.1,48.59-25.54c3.96-2.08,8.7-2.08,12.66,0l48.59,25.54-4.7-27.38s0,0,0,0l-4.58-26.72c-.76-4.41.71-8.92,3.91-12.05l12.12-11.81,2.99-2.92-4.79,27.94,69.21-36.38c5.65-2.97,12.39-2.97,18.04,0l69.2,36.38-4.82-28.11,3.02,2.95,12.12,11.81c3.21,3.13,4.67,7.63,3.91,12.05l-4.58,26.72s0,0,0,0l-4.7,27.38,48.59-25.54c3.96-2.08,8.7-2.08,12.66,0l48.59,25.54-9.28-54.1c-.76-4.41.71-8.92,3.91-12.04Z"/>
  <g>
    <path class="cls-2" d="M314.04,287.55h-2.58v18h-.14c.08.32.14.65.14,1,0,2.21-1.79,4-4,4s-4-1.79-4-4c0-.35.06-.68.14-1h-.14v-18.64c0-10.14-8.22-18.36-18.36-18.36h-2.64v22c0,2.21-1.79,4-4,4s-4-1.79-4-4h-.14v-22.89c0-10.55-8.56-19.11-19.11-19.11h-2.75v37c0,2.21-1.79,4-4,4s-4-1.79-4-4v-85.1c0-9.34-7.57-16.9-16.9-16.9h-2.19c-9.34,0-16.9,7.57-16.9,16.9v122.19c0,.11.01.22.02.33,0,0-.01,0-.02,0v14.58h-.05c-.24,1.69-1.69,3-3.45,3s-3.21-1.31-3.45-3h-.05v-15.96h0v-17.9c0-3.91-3.92-6.63-7.58-5.25-9.65,3.65-16.42,12.18-16.42,22.13v25.14c0,18.84,16.73,47.55,39,59.84,29,16,54,15.31,76.5,5.66,22.5-9.66,37.5-34.66,39.07-79.38v-22.92c0-11.8-8.05-21.36-17.99-21.36Z"/>
    <rect class="cls-2" x="249.46" y="187.55" width="28" height="11" rx="4.43" ry="4.43"/>
    <rect class="cls-2" x="175.46" y="187.55" width="28" height="11" rx="4.43" ry="4.43" transform="translate(378.91 386.11) rotate(-180)"/>
    <rect class="cls-2" x="236.37" y="167.47" width="28" height="11" rx="4.43" ry="4.43" transform="translate(-48.98 227.7) rotate(-45)"/>
    <rect class="cls-2" x="212.96" y="158.05" width="28" height="11" rx="4.43" ry="4.43" transform="translate(63.4 390.51) rotate(-90)"/>
    <rect class="cls-2" x="188.54" y="167.47" width="28" height="11" rx="4.43" ry="4.43" transform="translate(223.44 438.5) rotate(-135)"/>
  </g>
</svg>