<?xml version="1.0" encoding="UTF-8"?>
<svg id="Layer_1" xmlns="http://www.w3.org/2000/svg" viewBox="0 0 500 150">
  <defs>
    <style>
      .cls-1 {
        fill: #fff;
      }

      .cls-2 {
        fill: #0080ff;
      }

      .cls-3 {
        fill: #133cbd;
        font-family: Poppins-SemiBold, Poppins;
        font-size: 25.09px;
        font-weight: 600;
      }
    </style>
  </defs>
  <rect class="cls-1" x="-2.5" y="-9.5" width="505" height="167.6"/>
  <text class="cls-3" transform="translate(98.33 86.07)"><tspan x="0" y="0">SCROLL TO LEARN MORE!</tspan></text>
  <path class="cls-2" d="M347.03,91.52c-3.74,0-6.86,2.64-7.61,6.16h-56.73v26.73c-3.52.75-6.16,3.87-6.16,7.61,0,4.3,3.48,7.78,7.78,7.78s7.78-3.48,7.78-7.78c0-3.74-2.64-6.86-6.15-7.61v-23.48h53.48c.75,3.52,3.87,6.15,7.61,6.15,4.3,0,7.78-3.48,7.78-7.78s-3.48-7.78-7.78-7.78ZM288.97,132.01c0,2.57-2.08,4.65-4.65,4.65s-4.65-2.08-4.65-4.65,2.08-4.65,4.65-4.65,4.65,2.08,4.65,4.65ZM347.03,103.95c-2.57,0-4.65-2.08-4.65-4.65s2.08-4.65,4.65-4.65,4.65,2.08,4.65,4.65-2.08,4.65-4.65,4.65Z"/>
  <path class="cls-2" d="M155.51,100.47c-3.74,0-6.86,2.64-7.61,6.15h-57.09s0-32.54,0-32.54h-3.25s0,0,0,0h-10.83c-.75-3.52-3.87-6.16-7.61-6.16-4.3,0-7.78,3.48-7.78,7.78,0,4.3,3.48,7.78,7.78,7.78,3.77,0,6.91-2.68,7.62-6.23h10.81s0,32.61,0,32.61h3.25s57.09,0,57.09,0c.75,3.52,3.87,6.16,7.6,6.16,4.3,0,7.78-3.48,7.78-7.78s-3.48-7.78-7.78-7.78ZM69.13,80.36c-2.57,0-4.65-2.08-4.65-4.65s2.08-4.65,4.65-4.65c2.57,0,4.65,2.08,4.65,4.65s-2.08,4.65-4.65,4.64ZM155.51,112.89c-2.57,0-4.65-2.08-4.64-4.65,0-2.57,2.08-4.65,4.65-4.64,2.57,0,4.65,2.08,4.65,4.65,0,2.57-2.08,4.65-4.65,4.64Z"/>
  <path class="cls-2" d="M352.91,26.24c3.74,0,6.86,2.64,7.61,6.16h56.73v40.67c3.52.75,6.16,3.87,6.16,7.61,0,4.3-3.48,7.78-7.78,7.78s-7.78-3.48-7.78-7.78c0-3.74,2.64-6.86,6.15-7.61v-37.41h-53.48c-.75,3.52-3.87,6.15-7.61,6.15-4.3,0-7.78-3.48-7.78-7.78s3.48-7.78,7.78-7.78ZM410.97,80.67c0,2.57,2.08,4.65,4.65,4.65s4.65-2.08,4.65-4.65-2.08-4.65-4.65-4.65-4.65,2.08-4.65,4.65ZM352.91,38.67c2.57,0,4.65-2.08,4.65-4.65s-2.08-4.65-4.65-4.65-4.65,2.08-4.65,4.65,2.08,4.65,4.65,4.65Z"/>
  <path class="cls-2" d="M181.76,60.86c3.74,0,6.86-2.64,7.61-6.16h56.73v-26.73c3.52-.75,6.16-3.87,6.16-7.61,0-4.3-3.48-7.78-7.78-7.78s-7.78,3.48-7.78,7.78c0,3.74,2.64,6.86,6.15,7.61v23.48h-53.48c-.75-3.52-3.87-6.15-7.61-6.15-4.3,0-7.78,3.48-7.78,7.78s3.48,7.78,7.78,7.78ZM239.82,20.37c0-2.57,2.08-4.65,4.65-4.65s4.65,2.08,4.65,4.65-2.08,4.65-4.65,4.65-4.65-2.08-4.65-4.65ZM181.76,48.43c2.57,0,4.65,2.08,4.65,4.65s-2.08,4.65-4.65,4.65-4.65-2.08-4.65-4.65,2.08-4.65,4.65-4.65Z"/>
  <path class="cls-2" d="M449.19,123.6l-8.07,3.28c-.99.4-2.12.28-3-.34l-12.4-8.68c-1.18-.83-2.8,0-2.84,1.44-.2,7.81,3.39,15.57,10.27,20.39,5.53,3.87,12.11,5.09,18.26,3.94,2.58-.49,5.25.17,7.41,1.67l86.68,60.69c2.15,1.51,3.68,3.79,4.11,6.39,1.02,6.17,4.42,11.94,9.94,15.81,6.88,4.82,15.4,5.54,22.67,2.67,1.34-.53,1.56-2.33.38-3.16l-12.4-8.68c-.88-.62-1.39-1.63-1.35-2.71l.32-8.7c.05-1.24.82-2.35,1.97-2.81l8.07-3.28c.99-.4,2.12-.28,3,.34l12.4,8.68c1.18.83,2.8,0,2.84-1.44.2-7.81-3.39-15.57-10.27-20.39-5.53-3.87-12.11-5.09-18.26-3.94-2.58.49-5.25-.17-7.41-1.67l-86.68-60.69c-2.15-1.51-3.68-3.79-4.11-6.39-1.02-6.17-4.42-11.94-9.94-15.81-6.88-4.82-15.4-5.54-22.67-2.67-1.34.53-1.56,2.33-.38,3.16l12.4,8.68c.88.62,1.39,1.63,1.35,2.71l-.32,8.7c-.05,1.24-.82,2.35-1.97,2.81Z"/>
  <g>
    <path class="cls-2" d="M-34.98-36.87h10.26c2.56,0,4.64,2.08,4.64,4.64v97.99h-19.55V-32.23c0-2.56,2.08-4.64,4.64-4.64Z" transform="translate(-40.95 -16.81) rotate(-83.72)"/>
    <path class="cls-2" d="M27.34-19.84l19.88,14.52c6.1,4.46,9.36,11.84,8.53,19.35l-.86,7.77-1.12,10.15c-.06.54-.32,1.03-.73,1.38-2.29,1.95-3.88,4.74-4.23,7.96s.5,6.03,2.16,8.38c.46.65.69,1.43.6,2.22l-.74,6.75c-.12,1.11-1.12,1.92-2.24,1.79l-15.4-1.69c-1.11-.12-1.92-1.12-1.79-2.24l.74-6.75c.09-.79.48-1.51,1.07-2.04,2.13-1.93,3.6-4.62,3.93-7.71.1-.86.1-1.72.01-2.55-.34-3.44-3.08-6.15-6.51-6.52l-6.2-.68,2.14-19.43,5.27-1.7c4.41-1.42,6.12-6.76,3.34-10.48l-11.25-15.08c-1.67-2.23,1.13-5.06,3.38-3.41Z"/>
  </g>
</svg>